<?xml version="1.0" encoding="utf-8"?>

<!-- License Agreement at http://iconmonstr.com/license/ -->

<!DOCTYPE svg PUBLIC "-//W3C//DTD SVG 1.1//EN" "http://www.w3.org/Graphics/SVG/1.1/DTD/svg11.dtd">
<svg version="1.1" xmlns="http://www.w3.org/2000/svg" xmlns:xlink="http://www.w3.org/1999/xlink" x="0px" y="0px"
	 width="512px" height="512px" viewBox="0 0 512 512" style="enable-background:new 0 0 512 512;" xml:space="preserve">
<path id="id-card-2-icon" d="M462.191,141.051H301.135v48.97h161.057V141.051z M462.191,233.549H301.135v48.972h161.057V233.549z
	 M462.191,326.047H356.635v48.971h105.557V326.047z M288.967,375.018H49.856c0-16.344-2.652-38.727,31.627-46.55
	c29.532-6.74,65.56-24.162,54.954-46.843c-6.78,10.878-27.917,17.627-44.357,7.975c47.321-11.942-23.263-93.938,38.585-139.899
	c22.216-17.054,54.923-16.86,77.494,0c61.847,45.962-8.737,127.957,38.585,139.899c-16.44,9.652-37.546,3.193-44.357-7.975
	c-10.605,22.678,25.391,40.096,54.954,46.843C291.62,336.292,288.967,358.674,288.967,375.018z"/>
</svg>
